<?xml version="1.0" encoding="UTF-8"?>
<svg width="297px" height="88px" viewBox="0 0 290 101" version="1.1" xmlns="http://www.w3.org/2000/svg" xmlns:xlink="http://www.w3.org/1999/xlink">
    <title>RBS_Secondary_Horizontal_RGB_NEG</title>
    <g id="Page-1" stroke="none" stroke-width="1" fill="none" fill-rule="evenodd">
        <g id="RBS_Secondary_Horizontal_RGB_NEG" transform="translate(0.000079, 0.000000)">
            <g id="Royal-Bank-Brandmark" transform="translate(0.000000, 0.000000)">
                <path d="M87.5862295,43.8110701 C87.5862295,84.4421583 84.4075508,87.6221402 43.7931148,87.6221402 C3.17867868,87.6221402 0,84.4421583 0,43.8110701 C0,3.17998195 3.17867868,0 43.7931148,0 C84.4075508,0 87.5862295,3.17998195 87.5862295,43.8110701" id="Squircle" fill="#3C1053"></path>
                <path d="M40.0799976,34.0819995 C35.5518836,35.7079195 33.9937503,40.1110132 33.9937503,40.1110132 C33.3846004,41.7361797 31.7664523,42.9559964 29.9412533,42.9559964 L21.355391,42.9559964 C18.9900591,42.9559964 17.030577,40.9887689 17.030577,38.6207122 C17.030577,36.2481348 18.652476,34.3524839 21.355391,34.3524839 L28.1655664,34.3645389 L18.3126424,24.4651125 C16.6262276,22.7706296 16.6262276,20.0612653 18.3126424,18.3743168 C20.0035584,16.6813409 22.7094741,16.6813409 24.3966392,18.3743168 L34.1978005,28.1757963 L34.1978005,21.4189612 C34.1978005,19.050151 36.0912663,17.088951 38.5226144,17.088951 C40.8924475,17.088951 42.7844129,19.050151 42.7844129,21.4189612 L42.7844129,30.0179531 C42.7844129,31.8473014 41.7018966,33.5425377 40.0799976,34.0819995 M38.5226144,70.5167712 C36.1602833,70.5167712 34.2638167,68.9541401 34.3335839,66.248543 L34.3448366,59.3832127 L24.4641558,69.2931873 C22.7762406,70.9906839 20.0035584,70.9906839 18.3816594,69.2931873 C16.6937442,67.604732 16.6937442,64.8268048 18.3816594,63.2038986 L28.1565642,53.3783091 L21.4236578,53.3783091 C18.9900591,53.3783091 17.1003442,51.4163556 17.1003442,49.0520661 C17.1003442,46.6794887 18.9900591,44.715275 21.4236578,44.715275 L30.0065193,44.715275 C31.8309682,44.715275 33.4543676,45.796459 34.0650178,47.4238858 C35.6201504,52.0251338 40.00873,53.5824909 40.00873,53.5824909 C41.7018966,54.1912691 42.8519295,55.7486261 42.8519295,57.6457839 L42.8519295,66.248543 C42.8519295,68.6196135 40.9562131,70.5167712 38.5226144,70.5167712 M66.1631645,53.3135134 L59.3402359,53.305979 L69.2029123,63.2038986 C70.8930781,64.8938608 70.8930781,67.604732 69.2029123,69.2931873 C67.5164974,70.9906839 64.8090813,70.9906839 63.1211661,69.2931873 L53.3215052,59.4751322 L53.3215052,66.248543 C53.3215052,68.8253021 51.3597726,70.5845807 48.9951909,70.5845807 C46.6276084,70.5845807 44.6681263,68.6196135 44.6681263,66.248543 L44.6681263,57.6457839 C44.6681263,55.8164356 45.8166589,54.1242131 47.4408085,53.5824909 C51.9674221,52.0251338 53.5218045,47.5587513 53.5218045,47.5587513 C54.1302042,45.9365985 55.7536035,44.715275 57.5780524,44.715275 L66.1631645,44.715275 C68.5314971,44.715275 70.4887286,46.6794887 70.4887286,49.0520661 C70.4887286,51.4163556 68.7317964,53.3135134 66.1631645,53.3135134 M66.2314313,42.8866801 L57.645569,42.8866801 C55.8218703,42.8866801 54.1302042,41.8032357 53.5908215,40.1780692 C52.0341885,35.64011 47.5758417,34.0134366 47.5758417,34.0134366 C45.9531925,33.4031516 44.7356429,31.8473014 44.7356429,29.9486368 L44.7356429,21.3503983 C44.7356429,18.9823416 46.6958752,17.088951 49.0642078,17.088951 C51.4280394,17.088951 53.3215052,18.8482296 53.3215052,21.3503983 L53.3230056,28.2420989 L63.1879325,18.3057539 C64.8780983,16.6150383 67.5825137,16.6150383 69.2719293,18.3057539 C70.9620951,19.9934558 70.9620951,22.7706296 69.2719293,24.4651125 L59.5405352,34.216865 L66.2314313,34.216865 C68.596013,34.216865 70.5554951,36.1810788 70.5554951,38.5521493 C70.5554951,40.9224663 68.596013,42.8866801 66.2314313,42.8866801" id="Daisywheel" fill="#FFFFFF"></path>
            </g>
            <path d="M115.00803,11.6178914 C115.543232,11.531179 116.331081,11.4949174 117.116569,11.4949174 C120.505658,11.4949174 122.160063,13.4349113 122.160063,16.1222089 C122.160063,18.7322536 120.173518,20.5327193 116.948925,20.5327193 C116.123297,20.5327193 115.379523,20.4948812 115.00803,20.4531016 L115.00803,11.6178914 Z M115.00803,24.4355678 L115.463739,24.4355678 L122.990413,36.4791385 L129.649746,36.4791385 L123.155696,26.7137403 C122.491416,25.7252184 121.705141,24.5546003 120.919653,23.5187807 C124.806953,22.8542481 127.78677,19.7294468 127.78677,15.5853801 C127.78677,9.86708827 123.81368,7.10332607 117.654132,7.10332607 C114.42403,7.10332607 111.821215,7.14352911 109.626099,7.26886801 L109.626099,36.4791385 L115.00803,36.4791385 L115.00803,24.4355678 Z M140.298145,32.3767726 C137.278187,32.3767726 135.707999,30.2270922 135.707999,25.996313 C135.707999,21.7742051 138.025896,19.9469373 140.383147,19.9469373 C143.482598,19.9469373 144.931579,22.1005592 144.931579,26.0830255 C144.931579,30.2657186 142.905681,32.3767726 140.298145,32.3767726 M140.752279,15.4773048 C134.507729,15.4773048 130.244214,20.1124793 130.244214,26.5378717 C130.244214,33.8674384 134.053594,36.8897614 139.881789,36.8897614 C146.007493,36.8897614 150.392216,32.2514337 150.392216,25.7889914 C150.392216,18.7045845 146.627698,15.4773048 140.752279,15.4773048 M163.940388,37.6410853 L172.087267,15.8920268 L166.419633,15.8920268 L163.982102,22.8936628 C163.320183,24.7950303 162.448905,27.5745584 161.996344,29.4365111 L161.952269,29.4365111 C161.498921,27.5745584 160.921218,25.5439105 160.341153,23.7615756 L157.569907,15.8920268 L151.650413,15.8920268 L159.262878,36.4791385 L158.600959,38.3032531 C157.484904,41.531321 155.667578,42.3598191 153.930532,42.3598191 C153.060041,42.3598191 152.110058,42.1958537 151.326144,41.9451759 L150.704365,46.5046741 C151.489066,46.6717926 152.728688,46.7955549 153.599179,46.7955549 C158.354608,46.7955549 161.252571,44.764907 163.940388,37.6410853 M185.024285,27.3249842 L185.024285,27.8673312 C185.024285,30.3504603 183.291962,32.8320129 180.725352,32.8320129 C179.192155,32.8320129 178.24532,31.7512605 178.24532,30.4308664 C178.24532,28.652473 179.69194,27.3249842 185.024285,27.3249842 M179.033169,36.8901555 C181.946873,36.8901555 184.358431,35.421562 185.439854,33.2734581 L185.439854,36.4794538 L190.486496,36.4794538 C190.364502,34.7846196 190.321213,32.8320129 190.321213,31.1797467 L190.321213,22.6842917 C190.321213,18.0853788 188.421245,15.4335544 182.053126,15.4335544 C179.275584,15.4335544 176.340629,16.0161044 174.273804,16.846179 L175.14036,20.9035333 C176.95926,20.1120851 179.484155,19.4948502 181.346344,19.4948502 C184.076663,19.4948502 185.024285,20.6118642 185.024285,23.1028763 L185.024285,23.8454502 C177.828964,23.8454502 173.154602,26.1220461 173.154602,31.0134164 C173.154602,34.3691882 175.310365,36.8901555 179.033169,36.8901555 M194.623058,36.4792173 L199.919199,36.4792173 L199.919199,6.23628042 L194.623058,6.23628042 L194.623058,36.4792173 Z M217.962519,23.3710543 C218.542583,23.3316395 219.945128,23.3316395 220.320557,23.3316395 C224.002433,23.3316395 226.236902,24.7056377 226.236902,27.3582503 C226.236902,29.8019647 224.454994,32.213359 220.939187,32.213359 C219.945128,32.213359 218.624438,32.1282232 217.962519,32.0864436 L217.962519,23.3710543 Z M217.962519,11.6585674 C218.829074,11.6175761 219.82392,11.5750082 220.981689,11.5750082 C224.248783,11.5750082 225.490767,13.1169132 225.490767,15.1877641 C225.490767,17.6740464 223.832428,19.3137 220.152912,19.3137 C219.287931,19.3137 218.624438,19.3137 217.962519,19.2695555 L217.962519,11.6585674 Z M231.98403,27.19192 C231.98403,24.0828846 229.958132,21.4294837 226.979889,20.8043658 L226.979889,20.7208065 C229.666132,19.6455722 231.199329,17.0962262 231.199329,14.3198513 C231.199329,9.84864216 227.848018,7.26855269 221.851392,7.26855269 C218.457581,7.26855269 214.944136,7.35368855 212.586098,7.47272109 L212.586098,36.4796115 C216.102691,36.4796115 218.870788,36.5608059 220.735338,36.5608059 C228.918423,36.5608059 231.98403,31.502317 231.98403,27.19192 L231.98403,27.19192 Z M246.944506,27.8676465 C246.944506,30.3499874 245.20746,32.8323283 242.643998,32.8323283 C241.113163,32.8323283 240.161605,31.7515758 240.161605,30.4303935 C240.161605,28.652 241.605076,27.3252995 246.944506,27.3252995 L246.944506,27.8676465 Z M235.071674,31.0137317 C235.071674,34.3687152 237.223502,36.8896825 240.950241,36.8896825 C243.863945,36.8896825 246.277864,35.421089 247.357713,33.2706203 L247.357713,36.4797691 L252.404355,36.4797691 C252.279212,34.7849349 252.241433,32.8323283 252.241433,31.1792737 L252.241433,22.6838187 C252.241433,18.0856941 250.33753,15.4338698 243.96705,15.4338698 C241.196591,15.4338698 238.259276,16.0164197 236.186154,16.8457061 L237.056645,20.9030603 C238.878693,20.1124005 241.399653,19.4951655 243.259481,19.4951655 C245.992948,19.4951655 246.944506,20.6113912 246.944506,23.1031916 L246.944506,23.8449772 C239.749184,23.8449772 235.071674,26.1215731 235.071674,31.0137317 L235.071674,31.0137317 Z M261.8491,26.5378717 C261.8491,22.9298456 263.956065,19.9083109 266.605316,19.9083109 C268.591074,19.9083109 269.167991,21.1924434 269.167991,23.3066506 L269.167991,36.4790597 L274.420056,36.4790597 L274.420056,22.0193649 C274.420056,18.4152802 272.934083,15.4773048 268.298287,15.4773048 C265.150039,15.4773048 262.854966,16.9868897 261.5571,19.165737 L261.5571,15.891948 L256.553747,15.891948 L256.553747,36.4790597 L261.8491,36.4790597 L261.8491,26.5378717 Z M283.835994,26.9648122 L290.204901,36.4795326 L296.820157,36.4795326 L288.690593,25.2952035 L296.288891,15.8916327 L289.831833,15.8916327 L283.835994,23.4545347 L283.835994,6.23659574 L278.540641,6.23659574 L278.540641,36.4795326 L283.835994,36.4795326 L283.835994,26.9648122 Z M118.149195,76.7901001 C115.130024,76.7901001 113.554326,74.6309601 113.554326,70.4112171 C113.554326,66.1820145 115.872224,64.3578999 118.231836,64.3578999 C121.334435,64.3578999 122.783416,66.5123101 122.783416,70.4924115 C122.783416,74.6727398 120.75437,76.7901001 118.149195,76.7901001 M118.601755,59.8827493 C112.357992,59.8827493 108.097625,64.5250185 108.097625,70.9472577 C108.097625,78.2815542 111.905431,81.3030888 117.734413,81.3030888 C123.854608,81.3030888 128.240117,76.661608 128.240117,70.2015306 C128.240117,63.1179119 124.476387,59.8827493 118.601755,59.8827493 M133.639285,58.6631782 L133.639285,60.3580124 L130.036902,60.3580124 L130.036902,64.4634526 L133.639285,64.4634526 L133.639285,80.9506421 L138.890563,80.9506421 L138.890563,64.4634526 L143.691642,64.4634526 L143.691642,60.3580124 L138.890563,60.3580124 L138.890563,58.6190337 C138.890563,55.8875915 139.922401,54.6846534 142.241873,54.6846534 C143.021852,54.6846534 143.978132,54.7674244 144.806909,55.0583052 L145.177615,50.7077052 C144.09934,50.4601806 142.943933,50.3726799 141.827091,50.3726799 C136.202746,50.3726799 133.639285,53.1104283 133.639285,58.6631782 M158.438981,59.5141426 C158.438981,57.5292158 159.885601,56.1615241 163.02834,56.1615241 C164.681958,56.1615241 166.296222,56.4508283 167.829419,56.9458776 L168.322907,52.2208374 C166.752718,51.8913301 164.805526,51.6895266 163.279413,51.6895266 C156.534291,51.6895266 152.728059,55.1249162 152.728059,60.095116 C152.728059,69.2945184 164.472599,67.6335809 164.472599,72.975856 C164.472599,75.5890538 162.324707,76.6248734 159.799811,76.6248734 C157.56849,76.6248734 155.499304,76.1645092 153.720544,75.4195704 L153.143627,80.5955153 C155.003455,81.0968709 157.115143,81.3451838 159.595175,81.3451838 C166.048297,81.3451838 170.392093,77.4904213 170.392093,72.3136882 C170.392093,63.4493111 158.438981,64.4867073 158.438981,59.5141426 M182.951321,76.7086692 C179.436302,76.7086692 178.157326,74.2633782 178.157326,70.7436411 C178.157326,66.9267168 179.766868,64.4010197 182.910394,64.4010197 C184.27516,64.4010197 185.639138,64.7289504 186.756766,65.1853732 L187.583182,60.6313931 C186.260917,60.1733937 184.645866,59.9274457 183.076464,59.9274457 C175.96221,59.9274457 172.609326,64.8542893 172.609326,71.2773168 C172.609326,78.2813177 176.169994,81.2634376 181.87462,81.2634376 C183.862739,81.2634376 186.054707,80.9284122 187.668184,80.3119656 L186.962977,75.8738648 C185.764281,76.4162118 184.359375,76.7086692 182.951321,76.7086692 M198.890981,76.7901001 C195.86945,76.7901001 194.298474,74.6309601 194.298474,70.4112171 C194.298474,66.1820145 196.611649,64.3578999 198.97441,64.3578999 C202.075434,64.3578999 203.522842,66.5123101 203.522842,70.4924115 C203.522842,74.6727398 201.497731,76.7901001 198.890981,76.7901001 M199.345116,59.8827493 C193.101353,59.8827493 188.83705,64.5250185 188.83705,70.9472577 C188.83705,78.2815542 192.644857,81.3030888 198.4762,81.3030888 C204.60033,81.3030888 208.985052,76.661608 208.985052,70.2015306 C208.985052,63.1179119 205.217386,59.8827493 199.345116,59.8827493 M222.002036,76.8291995 C220.180774,76.8291995 219.565292,76.0826842 219.565292,73.4300715 L219.565292,64.4009408 L224.568645,64.4009408 L224.568645,60.2970772 L219.565292,60.2970772 L219.565292,51.6731301 L214.310078,53.07866 L214.310078,60.2970772 L210.751771,60.2970772 L210.751771,64.4009408 L214.310078,64.4009408 L214.310078,74.8379664 C214.310078,79.6457775 215.717345,81.3027735 220.26499,81.3027735 C221.712397,81.3027735 223.410877,81.0568255 224.734716,80.7218001 L224.360861,76.5391069 C223.658015,76.7448519 222.874101,76.8291995 222.002036,76.8291995 M228.099957,80.9508786 L233.391375,80.9508786 L233.391375,50.7040002 L228.099957,50.7040002 L228.099957,80.9508786 Z M248.323596,72.3229112 C248.323596,74.8123468 246.588911,77.2970526 244.027024,77.2970526 C242.495401,77.2970526 241.543056,76.2170884 241.543056,74.890388 C241.543056,73.1119945 242.988889,71.7845058 248.323596,71.7845058 L248.323596,72.3229112 Z M253.617375,67.1430249 C253.617375,62.5472652 251.717407,59.8962292 245.344566,59.8962292 C242.577256,59.8962292 239.638366,60.4764143 237.571541,61.3057006 L238.438883,65.3622666 C240.262506,64.5779131 242.781105,63.9575249 244.642506,63.9575249 C247.375973,63.9575249 248.323596,65.072174 248.323596,67.560033 L248.323596,68.30576 C241.1267,68.30576 236.4547,70.5870857 236.4547,75.4713614 C236.4547,78.8302863 238.606527,81.3551951 242.325396,81.3551951 C245.247757,81.3551951 247.665612,79.8755655 248.738378,77.7274616 L248.738378,80.9429169 L253.786594,80.9429169 C253.663025,79.240988 253.617375,77.2970526 253.617375,75.6416331 L253.617375,67.1430249 Z M268.898343,59.944394 C265.747734,59.944394 263.449512,61.459497 262.154008,63.6367677 L262.154008,60.3582489 L257.151441,60.3582489 L257.151441,80.9508786 L262.446795,80.9508786 L262.446795,71.0089023 C262.446795,67.4040294 264.555334,64.377765 267.20065,64.377765 C269.186408,64.377765 269.766473,65.6611092 269.766473,67.7729515 L269.766473,80.9508786 L275.021686,80.9508786 L275.021686,66.4911838 C275.021686,62.8863109 273.532565,59.944394 268.898343,59.944394 M291.56699,70.2436256 C291.56699,73.7625744 289.910225,76.9961604 287.139766,76.9961604 C284.740801,76.9961604 283.625534,75.004139 283.625534,71.153318 C283.625534,66.0546261 285.775,64.1524703 288.794958,64.1524703 C289.703227,64.1524703 290.617793,64.2762326 291.56699,64.4843425 L291.56699,70.2436256 Z M291.56699,50.6828739 L291.56699,60.1337425 C290.657934,60.0052504 289.831518,59.9689888 288.962602,59.9689888 C282.133264,59.9689888 278.080682,64.7697052 278.080682,71.7342914 C278.080682,77.6157602 280.564649,81.3853868 285.569577,81.3853868 C288.569071,81.3853868 290.767335,79.908122 291.895195,77.7907617 L291.895195,80.9305406 L296.82063,80.9305406 L296.82063,50.6828739 L291.56699,50.6828739 Z" id="Royal-Bank-Wordmark" fill="#FFFFFF"></path>
        </g>
    </g>
</svg>